<svg width="512" height="512" viewBox="0 0 512 512" xmlns="http://www.w3.org/2000/svg">
  <defs>
    <radialGradient id="gold" cx="50%" cy="50%" r="50%">
      <stop offset="0%" stop-color="#ffd700"/>
      <stop offset="100%" stop-color="#b8860b"/>
    </radialGradient>
    <linearGradient id="bg" x1="0" y1="0" x2="1" y2="1">
      <stop offset="0%" stop-color="#0b1220"/>
      <stop offset="100%" stop-color="#0f2a1d"/>
    </linearGradient>
  </defs>

  <!-- background -->
  <rect width="512" height="512" rx="120" fill="url(#bg)"/>

  <!-- coin -->
  <circle cx="256" cy="260" r="150" fill="url(#gold)" stroke="#fff3" stroke-width="8"/>

  <!-- garden -->
  <circle cx="256" cy="260" r="110" fill="#14532d" opacity="0.6"/>

  <!-- plants -->
  <path d="M220 300 C210 260, 230 240, 240 220 C250 240, 260 260, 250 300 Z" fill="#22c55e"/>
  <path d="M260 310 C250 270, 270 250, 280 230 C290 250, 300 270, 290 310 Z" fill="#16a34a"/>
  <path d="M300 300 C290 260, 310 240, 320 220 C330 240, 340 260, 330 300 Z" fill="#4ade80"/>

  <!-- shine -->
  <circle cx="200" cy="200" r="20" fill="#ffffff" opacity="0.4"/>
</svg>